<?xml version="1.0" encoding="UTF-8"?>
<svg version="1.1" xmlns="http://www.w3.org/2000/svg" width="1200" height="1200">
<path d="M0 0 C1.63663098 1.42424376 3.26277741 2.86068404 4.875 4.3125 C5.58785156 4.91835938 6.30070313 5.52421875 7.03515625 6.1484375 C13.89755346 11.99271412 20.24219454 18.27149317 25.875 25.3125 C28.98199073 23.95988766 30.75039092 22.56006433 32.875 19.9375 C48.28752301 1.86877622 67.53299334 -11.48491476 89.875 -19.6875 C91.61330078 -20.33332031 91.61330078 -20.33332031 93.38671875 -20.9921875 C124.22785348 -31.88487667 158.13496616 -31.66608351 188.875 -20.6875 C190.53402344 -20.11708984 190.53402344 -20.11708984 192.2265625 -19.53515625 C211.75165022 -12.48047127 228.05261783 -1.03796841 242.875 13.3125 C243.67292969 14.08207031 244.47085937 14.85164063 245.29296875 15.64453125 C248.43071298 18.72512167 251.29408505 21.74314954 253.875 25.3125 C257.01108345 23.95104692 258.7895345 22.51738211 260.9375 19.875 C285.05343061 -8.37946955 319.9178688 -25.38209322 356.875 -28.6875 C377.70151601 -29.71471893 397.23060512 -27.70932626 416.875 -20.6875 C418.00421875 -20.295625 419.1334375 -19.90375 420.296875 -19.5 C428.24098794 -16.61123166 435.56545715 -12.9193406 442.875 -8.6875 C443.80054688 -8.15382813 444.72609375 -7.62015625 445.6796875 -7.0703125 C476.49017515 11.59459161 500.0221261 43.47740185 508.875 78.3125 C509.08092773 79.10817383 509.28685547 79.90384766 509.49902344 80.72363281 C518.4556055 116.98859306 512.6772299 157.01409716 493.5 189.125 C484.7459941 203.32660262 474.03506002 216.92648299 460.875 227.3125 C460.38112793 227.70759766 459.88725586 228.10269531 459.37841797 228.50976562 C438.03030831 245.4278449 412.93173145 255.92310384 385.875 259.3125 C384.88757813 259.44140625 383.90015625 259.5703125 382.8828125 259.703125 C380.21025917 259.99749319 377.56045325 260.18406528 374.875 260.3125 C373.38613281 260.39177734 373.38613281 260.39177734 371.8671875 260.47265625 C354.81818202 260.93616349 337.94847618 257.85507799 321.875 252.3125 C320.77285156 251.94382812 319.67070313 251.57515625 318.53515625 251.1953125 C304.41728133 246.13451679 291.44365972 238.83873495 279.875 229.3125 C279.03026123 228.62583252 279.03026123 228.62583252 278.16845703 227.92529297 C270.12603774 221.36188885 262.27431858 214.54019532 255.875 206.3125 C255.875 205.6525 255.875 204.9925 255.875 204.3125 C255.215 204.3125 254.555 204.3125 253.875 204.3125 C253.53275391 205.12654297 253.53275391 205.12654297 253.18359375 205.95703125 C247.97990743 215.32366662 238.25625658 222.98470708 229.875 229.3125 C229.34535645 229.71710449 228.81571289 230.12170898 228.27001953 230.53857422 C203.93608442 249.0181553 176.21139108 258.174918 145.875 260.3125 C144.36099609 260.42271484 144.36099609 260.42271484 142.81640625 260.53515625 C108.73081054 261.67299181 74.94266158 248.41589263 48.93359375 226.9765625 C46.77474641 225.17945118 46.77474641 225.17945118 43.875 223.3125 C43.875 222.6525 43.875 221.9925 43.875 221.3125 C43.2871875 221.06242188 42.699375 220.81234375 42.09375 220.5546875 C39.58158898 219.14823115 38.20854648 217.64609008 36.375 215.4375 C33.97475226 212.60130983 31.55221347 209.8940987 28.875 207.3125 C27.875 206.3125 26.875 205.3125 25.875 204.3125 C25.6378125 204.86421875 25.400625 205.4159375 25.15625 205.984375 C23.56254857 208.88024711 21.58582727 211.10762037 19.375 213.5625 C18.5809375 214.45453125 17.786875 215.3465625 16.96875 216.265625 C14.875 218.3125 14.875 218.3125 12.875 218.3125 C12.875 218.9725 12.875 219.6325 12.875 220.3125 C9.40696432 223.5457557 5.6129263 226.3989785 1.875 229.3125 C1.01132812 229.99054688 0.14765625 230.66859375 -0.7421875 231.3671875 C-24.67081262 249.47730195 -53.31257468 258.75739893 -83.125 260.3125 C-84.33542969 260.37630859 -84.33542969 260.37630859 -85.5703125 260.44140625 C-125.61811531 261.45957073 -161.22234012 243.41503952 -190.2109375 217.30859375 C-192.125 215.3125 -192.125 215.3125 -192.125 213.3125 C-192.785 213.3125 -193.445 213.3125 -194.125 213.3125 C-195.88868555 211.35284939 -197.51463662 209.39379782 -199.125 207.3125 C-199.85541504 206.37059814 -199.85541504 206.37059814 -200.60058594 205.40966797 C-216.07002807 185.1091541 -225.88638697 162.51506396 -230.125 137.3125 C-230.30933594 136.30316406 -230.49367187 135.29382813 -230.68359375 134.25390625 C-232.7635052 115.68195357 -231.78997334 96.39606799 -227.125 78.3125 C-226.82746826 77.15500244 -226.82746826 77.15500244 -226.52392578 75.97412109 C-220.35364934 53.10433752 -207.45518779 32.29703329 -191.125 15.3125 C-190.30257812 14.45011719 -189.48015625 13.58773437 -188.6328125 12.69921875 C-184.08575459 8.02867843 -184.08575459 8.02867843 -182.125 6.3125 C-181.465 6.3125 -180.805 6.3125 -180.125 6.3125 C-180.125 5.6525 -180.125 4.9925 -180.125 4.3125 C-178.20301496 2.70569579 -176.29395784 1.25147274 -174.25 -0.1875 C-173.62722168 -0.62674805 -173.00444336 -1.06599609 -172.36279297 -1.51855469 C-159.78630458 -10.19945186 -146.61732125 -16.88341561 -132.125 -21.6875 C-131.23683594 -21.99171875 -130.34867187 -22.2959375 -129.43359375 -22.609375 C-87.20650305 -36.24448172 -34.79628379 -28.31130183 0 0 Z " fill="#3F346E" transform="translate(459.125,431.6875)"/>
<path d="M0 0 C1.69382812 0.5878125 1.69382812 0.5878125 3.421875 1.1875 C11.36598794 4.07626834 18.69045715 7.7681594 26 12 C26.92554688 12.53367187 27.85109375 13.06734375 28.8046875 13.6171875 C59.61517515 32.28209161 83.1471261 64.16490185 92 99 C92.20592773 99.79567383 92.41185547 100.59134766 92.62402344 101.41113281 C101.5806055 137.67609306 95.8022299 177.70159716 76.625 209.8125 C67.8709941 224.01410262 57.16006002 237.61398299 44 248 C43.50612793 248.39509766 43.01225586 248.79019531 42.50341797 249.19726562 C21.15530831 266.1153449 -3.94326855 276.61060384 -31 280 C-31.98742187 280.12890625 -32.97484375 280.2578125 -33.9921875 280.390625 C-36.66474083 280.68499319 -39.31454675 280.87156528 -42 281 C-43.48886719 281.07927734 -43.48886719 281.07927734 -45.0078125 281.16015625 C-62.05681798 281.62366349 -78.92652382 278.54257799 -95 273 C-96.10214844 272.63132812 -97.20429687 272.26265625 -98.33984375 271.8828125 C-112.45771867 266.82201679 -125.43134028 259.52623495 -137 250 C-137.84473877 249.31333252 -137.84473877 249.31333252 -138.70654297 248.61279297 C-149.20517862 240.04487504 -159.4289758 231.04687769 -166 219 C-166 218.34 -166 217.68 -166 217 C-166.66 217 -167.32 217 -168 217 C-183.30301083 197.16456876 -191.28236894 167.66856786 -192 143 C-192.02578125 142.29472168 -192.0515625 141.58944336 -192.078125 140.86279297 C-193.09996529 109.90741856 -184.74710411 81.23371409 -167.35546875 55.64453125 C-165.90585026 53.49449218 -164.91285006 51.76950692 -163.98828125 49.32421875 C-162.61841664 46.10260039 -160.55205586 44.39927973 -158 42 C-156.75668949 40.71970862 -155.51886481 39.43407777 -154.28515625 38.14453125 C-114.25318921 -3.13205136 -55.00297092 -19.66063641 0 0 Z " fill="#69E9F4" transform="translate(876,411)"/>
<path d="M0 0 C1.65902344 0.57041016 1.65902344 0.57041016 3.3515625 1.15234375 C22.89337069 8.21307007 39.14765355 19.6642569 54 34 C54.78632812 34.73476563 55.57265625 35.46953125 56.3828125 36.2265625 C60.55708719 40.21599846 63.23856376 43.93736689 66 49 C65.11248047 50.35931641 65.11248047 50.35931641 64.20703125 51.74609375 C57.7436382 61.66043273 57.7436382 61.66043273 52 72 C51.44570313 73.08410156 50.89140625 74.16820312 50.3203125 75.28515625 C33.27840277 109.58096268 33.20557012 149.34490816 45.0859375 185.28515625 C48.58150917 194.9390337 53.33853162 204.08910934 58.7421875 212.8125 C60 215 60 215 60 217 C60.66 217 61.32 217 62 217 C64.25 219.6875 64.25 219.6875 66 223 C65.41403902 227.57049564 61.97397693 230.21416304 58.77734375 233.25390625 C56.82188028 235.09939742 56.82188028 235.09939742 54.75 237.875 C34.1954936 263.01934764 -2.52774498 276.86586148 -33.8125 280.25 C-36.87276165 280.53891006 -39.93379351 280.78394702 -43 281 C-44.51400391 281.11021484 -44.51400391 281.11021484 -46.05859375 281.22265625 C-80.14418946 282.36049181 -113.93233842 269.10339263 -139.94140625 247.6640625 C-142.10025359 245.86695118 -142.10025359 245.86695118 -145 244 C-145 243.34 -145 242.68 -145 242 C-145.5878125 241.74992188 -146.175625 241.49984375 -146.78125 241.2421875 C-149.29341102 239.83573115 -150.66645352 238.33359008 -152.5 236.125 C-154.24569441 234.03810168 -155.94930885 232.04821841 -157.921875 230.171875 C-160.57645254 227.39754209 -162.65039997 224.32309893 -164.75 221.125 C-165.18030518 220.47096191 -165.61061035 219.81692383 -166.05395508 219.14306641 C-169.01185077 214.60293905 -171.9118857 210.02897185 -174.6875 205.375 C-175.35136719 204.26898437 -176.01523437 203.16296875 -176.69921875 202.0234375 C-178.18289344 198.57489632 -178.26578978 197.47684746 -177 194 C-175.96676125 191.8501968 -174.877028 189.72715223 -173.75 187.625 C-160.06494074 161.22055395 -158.70380772 129.48841299 -166.5859375 101.05859375 C-168.96945976 93.71830303 -172.62743722 86.82032264 -176.1237793 79.96020508 C-177.02728303 77.93896478 -177.67305717 76.19229529 -178 74 C-176.93457961 71.48442409 -175.83408927 69.24021921 -174.5 66.875 C-174.13777344 66.21282471 -173.77554687 65.55064941 -173.40234375 64.8684082 C-170.6686096 59.95995044 -167.62411616 55.35177979 -164.25 50.85546875 C-162.81375902 49.09642268 -162.81375902 49.09642268 -163 47 C-161.902289 45.84130505 -160.79245334 44.69280461 -159.640625 43.58789062 C-157.7233829 41.73227417 -155.88019315 39.81429048 -154.03125 37.890625 C-145.57119561 29.18471489 -137.4854746 21.23629538 -127 15 C-126.36852051 14.62053223 -125.73704102 14.24106445 -125.08642578 13.85009766 C-116.68008309 8.83311431 -108.20917953 4.38103382 -99 1 C-97.84113281 0.56945312 -96.68226563 0.13890625 -95.48828125 -0.3046875 C-64.64714652 -11.19737667 -30.74003384 -10.97858351 0 0 Z " fill="#645ECD" transform="translate(648,411)"/>
<path d="M0 0 C1.25103516 0.06574219 1.25103516 0.06574219 2.52734375 0.1328125 C6.21312602 1.21185507 7.67607561 2.88067109 10.0625 5.875 C10.50107267 8.86691443 10.65151776 11.26514885 10.55078125 14.23828125 C10.54370651 15.03026413 10.53663177 15.82224701 10.52934265 16.63822937 C10.50146244 19.15563389 10.438742 21.67077356 10.375 24.1875 C10.34990861 25.8990563 10.32709691 27.61064765 10.30664062 29.32226562 C10.25591585 33.50807426 10.15807037 37.68901775 10.0625 41.875 C18.9725 41.875 27.8825 41.875 37.0625 41.875 C37.01029297 38.17216797 37.01029297 38.17216797 36.95703125 34.39453125 C36.93361313 31.99504756 36.91540944 29.59557677 36.89770508 27.19604492 C36.88264886 25.53257519 36.86219937 23.86914495 36.83618164 22.20581055 C36.79965793 19.81028478 36.78274218 17.41528533 36.76953125 15.01953125 C36.75404739 14.2797554 36.73856354 13.53997955 36.72261047 12.77778625 C36.72115877 8.29088511 37.25821435 5.42236923 40.0625 1.875 C45.03442268 -0.79286095 50.70383452 -0.60266687 56.0625 0.875 C58.67710876 2.34228516 58.67710876 2.34228516 61.0625 4.875 C61.81277059 7.93536344 61.73543962 10.94009292 61.69360352 14.078125 C61.70075882 15.00862671 61.70791412 15.93912842 61.71528625 16.89782715 C61.73219693 19.97405064 61.71275647 23.04882169 61.69140625 26.125 C61.69223473 28.2620455 61.69469331 30.39909094 61.69871521 32.53613281 C61.70157484 37.01516905 61.68685545 41.49370569 61.65942383 45.97265625 C61.62534117 51.71644977 61.63135791 57.45934975 61.6500864 63.20318604 C61.6606506 67.61612404 61.65172377 72.02885382 61.63670158 76.44177246 C61.63151507 78.55968609 61.63200724 80.67762143 61.63824654 82.79553223 C61.64369161 85.75478947 61.62334585 88.71276388 61.59594727 91.671875 C61.60247314 92.54888062 61.60899902 93.42588623 61.61572266 94.32946777 C61.52211265 100.26983201 61.52211265 100.26983201 59.15415955 103.38769531 C55.6733921 105.86274521 53.50877971 106.06198476 49.25 106.125 C47.69345703 106.16367187 47.69345703 106.16367187 46.10546875 106.203125 C42.64367495 105.82983786 40.81054181 104.98660125 38.0625 102.875 C36.7466191 98.9273573 36.93949727 95.16410644 36.96484375 91.05078125 C36.9662587 90.18938034 36.96767365 89.32797943 36.96913147 88.44047546 C36.9747286 85.68944831 36.98728054 82.93850256 37 80.1875 C37.00501537 78.3222668 37.00957821 76.45703233 37.01367188 74.59179688 C37.02384616 70.01947466 37.04342213 65.44732845 37.0625 60.875 C28.1525 60.875 19.2425 60.875 10.0625 60.875 C10.08570313 63.64390625 10.10890625 66.4128125 10.1328125 69.265625 C10.14841354 71.94970237 10.16055571 74.63377467 10.17236328 77.31787109 C10.18241593 79.18215194 10.19606005 81.04641703 10.21337891 82.91064453 C10.23765953 85.59151091 10.24899047 88.27216866 10.2578125 90.953125 C10.26813507 91.78555725 10.27845764 92.6179895 10.28909302 93.47564697 C10.29050876 100.79048421 10.29050876 100.79048421 8.0625 103.875 C4.87320929 106.11247567 1.95278649 106.17301909 -1.875 106.1875 C-2.89464844 106.20425781 -3.91429687 106.22101563 -4.96484375 106.23828125 C-8.36504557 105.82275067 -10.22655135 104.9457962 -12.9375 102.875 C-14.25732521 98.91552438 -14.10992441 95.11422404 -14.13037109 90.98486328 C-14.13854858 90.07562103 -14.14672607 89.16637878 -14.15515137 88.22958374 C-14.17998172 85.21816669 -14.19651341 82.20679663 -14.2109375 79.1953125 C-14.21626118 78.16724361 -14.22158485 77.13917473 -14.22706985 76.07995224 C-14.25378835 70.64071142 -14.27316935 65.20149348 -14.28759766 59.76220703 C-14.30426244 54.14068772 -14.34905949 48.51975273 -14.3999691 42.89845467 C-14.43359428 38.57818922 -14.44516976 34.25806347 -14.45082474 29.93767929 C-14.45754788 27.86519773 -14.47279742 25.79272569 -14.49671555 23.72037125 C-14.52827467 20.82106809 -14.52841798 17.92335504 -14.52099609 15.02392578 C-14.53740143 14.16764587 -14.55380676 13.31136597 -14.57070923 12.42913818 C-14.52478228 8.04834133 -14.35436182 6.39720238 -11.52627563 2.85446167 C-7.59853848 -0.14881333 -4.85002756 -0.34376158 0 0 Z " fill="#FCFEFE" transform="translate(651.9375,813.125)"/>
<path d="M0 0 C5.65385621 4.66103488 10.06215482 9.85876659 10.80078125 17.4296875 C11.16059695 23.09678478 10.93326204 26.49000625 7.80078125 31.4296875 C4.86155192 32.89930216 2.19669153 32.63888612 -1.07421875 32.6796875 C-2.30914062 32.70546875 -3.5440625 32.73125 -4.81640625 32.7578125 C-8.43527052 32.40679102 -9.78192854 32.10413624 -12.19921875 29.4296875 C-13.140625 26.8359375 -13.140625 26.8359375 -13.76171875 23.9296875 C-14.57820578 20.15660457 -15.12349474 17.87148366 -18.19921875 15.4296875 C-21.8964725 13.58106062 -26.16383317 13.95381656 -30.19921875 14.4296875 C-33.1334507 16.22615604 -34.6712723 17.3737946 -36.19921875 20.4296875 C-36.30454785 22.03691754 -36.34794599 23.64840328 -36.36035156 25.2590332 C-36.36995911 26.26380203 -36.37956665 27.26857086 -36.38946533 28.30378723 C-36.39584015 29.93811958 -36.39584015 29.93811958 -36.40234375 31.60546875 C-36.41089386 33.28143379 -36.41089386 33.28143379 -36.4196167 34.99125671 C-36.42907617 37.35931448 -36.43560442 39.72738546 -36.43945312 42.09545898 C-36.44915095 45.71686836 -36.48016294 49.33770849 -36.51171875 52.95898438 C-36.51824942 55.25780912 -36.52349964 57.55663794 -36.52734375 59.85546875 C-36.53969055 60.93895096 -36.55203735 62.02243317 -36.5647583 63.13874817 C-36.65360841 70.31801224 -36.65360841 70.31801224 -33.19921875 76.4296875 C-29.27494746 78.71884575 -25.67434026 78.82925192 -21.19921875 78.4296875 C-17.34917745 76.71855803 -15.78904616 75.26837335 -14.19921875 71.4296875 C-13.72839673 68.88241963 -13.38308522 66.33876044 -13.0546875 63.76953125 C-12.19921875 61.4296875 -12.19921875 61.4296875 -10.00390625 59.640625 C-6.82231968 58.26695949 -4.59006163 58.06043218 -1.13671875 58.1171875 C-0.11449219 58.12105469 0.90773438 58.12492188 1.9609375 58.12890625 C4.77776546 58.42724979 6.44408574 58.89271217 8.80078125 60.4296875 C12.1078591 66.05171985 11.24607565 72.37058779 9.73828125 78.4296875 C6.9286874 86.97662953 0.66001422 92.45778895 -7.19921875 96.4296875 C-13.33814268 98.99858202 -18.94362569 99.9526735 -25.57421875 99.8671875 C-26.40348877 99.85961426 -27.23275879 99.85204102 -28.0871582 99.84423828 C-34.71788705 99.66672781 -40.31024383 98.62541109 -46.19921875 95.4296875 C-46.93398438 95.04039062 -47.66875 94.65109375 -48.42578125 94.25 C-54.69842801 90.27967303 -57.63662087 84.2396362 -60.19921875 77.4296875 C-61.47953901 71.71043617 -61.39623291 65.97579285 -61.4375 60.14453125 C-61.44557175 59.0518544 -61.45364349 57.95917755 -61.46195984 56.83338928 C-61.47576321 54.52281258 -61.48650204 52.21221581 -61.49438477 49.90161133 C-61.50587959 47.5577998 -61.52629142 45.21401392 -61.5559082 42.87036133 C-61.92879394 13.32906184 -61.92879394 13.32906184 -53.69921875 2.4296875 C-40.26153751 -11.25963571 -15.05731457 -10.75140401 0 0 Z " fill="#FDFEFE" transform="translate(373.19921875,820.5703125)"/>
<path d="M0 0 C0.83144531 -0.03738281 1.66289063 -0.07476563 2.51953125 -0.11328125 C6.38793753 0.50407788 8.25411734 1.69602499 11.1875 4.3125 C12.09172252 7.49290341 12.02549767 10.60114463 11.9921875 13.890625 C12.00589386 14.8171991 12.01960022 15.74377319 12.03372192 16.69842529 C12.07106898 19.65360865 12.06730394 22.60711384 12.0625 25.5625 C12.08062349 27.56773466 12.10142508 29.57294703 12.125 31.578125 C12.17689517 36.48986515 12.1919275 41.40050071 12.1875 46.3125 C12.65873291 45.89532715 13.12996582 45.4781543 13.61547852 45.04833984 C14.23865967 44.50387207 14.86184082 43.9594043 15.50390625 43.3984375 C16.42731812 42.58705322 16.42731812 42.58705322 17.36938477 41.75927734 C21.39526185 38.55565876 25.90997873 37.82772347 30.984375 38.01171875 C38.88865856 39.09084966 44.13218184 42.57245582 49.3984375 48.41015625 C54.45324468 56.61042205 55.88886217 64.73488937 55.75 74.25 C55.73573975 75.82769165 55.73573975 75.82769165 55.72119141 77.43725586 C55.50890411 85.35017295 54.56659194 91.55220422 50.1875 98.3125 C49.75308594 99.00085938 49.31867187 99.68921875 48.87109375 100.3984375 C44.7695859 105.93722588 38.60711673 109.54545908 31.82421875 110.72265625 C24.91794463 110.99699875 19.00719358 109.01032117 13.6875 104.625 C12.45 103.4803125 12.45 103.4803125 11.1875 102.3125 C10.56875 103.116875 9.95 103.92125 9.3125 104.75 C7.1875 107.3125 7.1875 107.3125 5.1875 108.3125 C0.21037573 108.72926403 -4.32275466 108.96798795 -8.9375 106.9375 C-10.8125 105.3125 -10.8125 105.3125 -11.8125 103.3125 C-11.92698684 100.25213441 -11.98038548 97.21402224 -11.98950195 94.15283203 C-11.99607315 93.20311523 -12.00264435 92.25339844 -12.00941467 91.27490234 C-12.0291707 88.12337166 -12.04081435 84.97188863 -12.05078125 81.8203125 C-12.05485678 80.74594814 -12.0589323 79.67158379 -12.06313133 78.56466293 C-12.08400019 72.88018739 -12.09829936 67.19573606 -12.10766602 61.51123047 C-12.11874251 55.63073047 -12.15315458 49.75060763 -12.19283772 43.87024117 C-12.21894022 39.35614299 -12.2273521 34.84213562 -12.23094749 30.3279686 C-12.23582859 28.15978315 -12.24748559 25.99160216 -12.26598549 23.82349014 C-12.29024517 20.79233852 -12.28943611 17.76217532 -12.2824707 14.73095703 C-12.29528076 13.83210785 -12.30809082 12.93325867 -12.32128906 12.00717163 C-12.27036264 5.94046471 -12.27036264 5.94046471 -9.97062683 2.78634644 C-6.68886113 0.54513493 -3.88679896 0.1134396 0 0 Z M12.1875 64.3125 C10.26495722 70.08012834 10.01646236 77.63209598 11.87109375 83.4609375 C14.11226544 87.12492773 17.17165949 89.05262847 21.1875 90.3125 C25.57494429 89.78298086 27.50900315 89.12110288 30.3671875 85.71484375 C32.4691452 81.78607732 32.78551681 78.65791208 32.6875 74.3125 C32.70296875 73.62671875 32.7184375 72.9409375 32.734375 72.234375 C32.69555441 67.14887771 31.37717777 64.21628473 28.1875 60.3125 C21.58463711 57.01106856 16.78384098 59.49194726 12.1875 64.3125 Z " fill="#FEFEFE" transform="translate(900.8125,810.6875)"/>
<path d="M0 0 C6.95780974 2.31926991 10.37466084 11.26686364 13.66796875 17.25390625 C17.37503349 24.89633003 17.37503349 24.89633003 15.76953125 29.62109375 C15.13705058 30.90322053 14.48400695 32.17537508 13.8125 33.4375 C13.17214861 34.7065128 12.5328202 35.97604233 11.89453125 37.24609375 C11.57613281 37.86871094 11.25773438 38.49132812 10.9296875 39.1328125 C8.67756166 43.65598962 6.79525728 48.27115369 5.375 53.125 C5.13523437 53.93195312 4.89546875 54.73890625 4.6484375 55.5703125 C3.99079082 58.03450667 3.48257602 60.49614244 3 63 C2.835 63.72058594 2.67 64.44117188 2.5 65.18359375 C-0.50764727 78.74150373 0.07616554 91.39574201 2 105 C2.15726563 106.17691406 2.31453125 107.35382813 2.4765625 108.56640625 C3.30535835 114.17833744 4.52135935 118.85205404 7 124 C7.61000635 125.58109268 8.21364521 127.16464996 8.8125 128.75 C10.71577422 133.61970554 13.20619547 137.99901776 15.92578125 142.45703125 C17.27448255 145.64977505 17.14142268 146.73811008 16 150 C14.70237158 152.69700986 13.24646315 155.28403629 11.75 157.875 C11.17572266 158.89787109 11.17572266 158.89787109 10.58984375 159.94140625 C7.98735185 164.51099905 5.11776201 168.76559274 2 173 C0.0625 172.25 0.0625 172.25 -2 171 C-2.75 168.875 -2.75 168.875 -3 167 C-3.66 167 -4.32 167 -5 167 C-20.30301083 147.16456876 -28.28236894 117.66856786 -29 93 C-29.02578125 92.29472168 -29.0515625 91.58944336 -29.078125 90.86279297 C-30.13819934 58.74916582 -21.07685559 27.99019883 -2 2 C-1.34 1.34 -0.68 0.68 0 0 Z " fill="#66B8E8" transform="translate(713,461)"/>
<path d="M0 0 C21.81209197 19.82917452 29.80823231 54.32297275 31.28125 82.6171875 C32.32529401 115.37406829 21.89501366 148.01723768 2 174 C-2.05539606 172.64820131 -3.23534316 169.97615672 -5.375 166.5 C-5.77058105 165.86650635 -6.16616211 165.2330127 -6.57373047 164.58032227 C-7.36189055 163.31058055 -8.14534673 162.03790568 -8.92382812 160.76220703 C-9.84794501 159.2489866 -10.78948281 157.74642933 -11.734375 156.24609375 C-12.19328125 155.48425781 -12.6521875 154.72242188 -13.125 153.9375 C-13.71667969 152.96103516 -13.71667969 152.96103516 -14.3203125 151.96484375 C-15.62414347 148.19572318 -14.21251868 145.44217597 -12.546875 141.9765625 C-11.65742188 140.31753906 -11.65742188 140.31753906 -10.75 138.625 C2.93505926 112.22055395 4.29619228 80.48841299 -3.5859375 52.05859375 C-5.96945976 44.71830303 -9.62743722 37.82032264 -13.1237793 30.96020508 C-14.02728303 28.93896478 -14.67305717 27.19229529 -15 25 C-13.93457914 22.48442297 -12.83434889 20.24008592 -11.5 17.875 C-11.13777344 17.2142749 -10.77554687 16.5535498 -10.40234375 15.87280273 C-7.30353763 10.31830074 -3.82655565 5.08214422 0 0 Z " fill="#5D56BC" transform="translate(485,460)"/>
<path d="M0 0 C7.37556408 6.76348407 11.72394649 13.12835992 12.31640625 23.375 C12.34007092 24.95034364 12.34094371 26.52617622 12.3203125 28.1015625 C12.31128906 28.93155762 12.30226563 29.76155273 12.29296875 30.61669922 C12.00893947 40.71749058 9.37118388 48.31627518 2.3046875 55.71484375 C-6.38156405 62.93003657 -16.03458794 65.73538171 -27.1171875 64.7265625 C-36.75365182 62.53225101 -45.70932163 57.1602044 -51.12109375 48.71484375 C-56.20722909 38.5625187 -56.83640933 25.73358238 -53.93359375 14.8125 C-50.46399626 5.94759541 -44.04516018 -0.6144079 -35.4921875 -4.5859375 C-23.46019801 -9.45939879 -10.20613768 -8.38804028 0 0 Z M-30.1171875 17.7265625 C-31.79403037 21.08024823 -31.42806544 24.79245888 -31.4921875 28.4765625 C-31.52957031 29.27578125 -31.56695313 30.075 -31.60546875 30.8984375 C-31.66802506 35.12446396 -31.45449246 37.88114787 -28.75 41.2421875 C-25.98250722 43.85364953 -24.88214881 44.7265625 -21.1171875 44.7265625 C-17.12742354 43.65613802 -14.73488081 41.9051901 -12.1171875 38.7265625 C-10.93809868 35.29013918 -10.91727858 31.89979416 -10.8671875 28.2890625 C-10.84140625 27.17660156 -10.815625 26.06414063 -10.7890625 24.91796875 C-11.15170388 21.39084965 -12.08978746 19.59236106 -14.1171875 16.7265625 C-14.5090625 16.1284375 -14.9009375 15.5303125 -15.3046875 14.9140625 C-20.67928253 11.3927761 -26.06425286 13.55081166 -30.1171875 17.7265625 Z " fill="#FDFEFE" transform="translate(616.1171875,856.2734375)"/>
<path d="M0 0 C5.01623716 4.45143183 8.73410917 10.21959918 9.3203125 16.9609375 C9.62839187 28.08734236 9.62839187 28.08734236 6.859375 31.62890625 C2.15682596 35.28644439 -2.40411202 34.93800713 -8.22265625 34.9140625 C-8.90365891 34.91264755 -9.58466156 34.9112326 -10.28630066 34.90977478 C-12.44612147 34.90420923 -14.60583589 34.89166328 -16.765625 34.87890625 C-18.23632662 34.87388679 -19.70702988 34.86932466 -21.17773438 34.86523438 C-24.7695654 34.85425113 -28.3613348 34.83701047 -31.953125 34.81640625 C-29.74690726 40.92137712 -29.74690726 40.92137712 -24.953125 44.81640625 C-17.53763251 46.42309629 -12.15149242 45.30530143 -5.328125 42.12890625 C-1.50521818 40.64222026 0.19771947 40.44781762 4.046875 41.81640625 C7.13463073 44.82070912 8.93772499 47.45040584 9.046875 51.81640625 C6.82446208 56.87856902 3.18639528 59.87455221 -1.828125 62.08203125 C-14.37774781 66.03516243 -27.45896003 66.63652077 -39.4921875 60.52734375 C-46.96970447 55.85076959 -52.04950153 50.22163207 -54.953125 41.81640625 C-57.21518534 30.60035708 -57.45460728 18.0642858 -51.265625 8.12890625 C-45.55420335 0.21017189 -38.80183583 -4.07629811 -29.515625 -6.93359375 C-18.48324584 -8.00992342 -9.19997971 -6.50849629 0 0 Z M-30.953125 12.81640625 C-32.4003386 15.33815544 -32.4003386 15.33815544 -31.953125 20.81640625 C-25.683125 20.81640625 -19.413125 20.81640625 -12.953125 20.81640625 C-11.56698634 16.98625418 -11.56698634 16.98625418 -13.078125 14.19140625 C-15.76129884 10.79271938 -18.17667365 10.04415642 -22.390625 9.50390625 C-25.72605751 9.91066631 -28.07533965 11.11589672 -30.953125 12.81640625 Z " fill="#FDFEFE" transform="translate(778.953125,856.18359375)"/>
<path d="M0 0 C5.01623716 4.45143183 8.73410917 10.21959918 9.3203125 16.9609375 C9.62839187 28.08734236 9.62839187 28.08734236 6.859375 31.62890625 C2.15682596 35.28644439 -2.40411202 34.93800713 -8.22265625 34.9140625 C-8.90365891 34.91264755 -9.58466156 34.9112326 -10.28630066 34.90977478 C-12.44612147 34.90420923 -14.60583589 34.89166328 -16.765625 34.87890625 C-18.23632662 34.87388679 -19.70702988 34.86932466 -21.17773438 34.86523438 C-24.7695654 34.85425113 -28.3613348 34.83701047 -31.953125 34.81640625 C-29.74690726 40.92137712 -29.74690726 40.92137712 -24.953125 44.81640625 C-17.53763251 46.42309629 -12.15149242 45.30530143 -5.328125 42.12890625 C-1.50521818 40.64222026 0.19771947 40.44781762 4.046875 41.81640625 C7.13463073 44.82070912 8.93772499 47.45040584 9.046875 51.81640625 C6.82446208 56.87856902 3.18639528 59.87455221 -1.828125 62.08203125 C-14.37774781 66.03516243 -27.45896003 66.63652077 -39.4921875 60.52734375 C-46.96970447 55.85076959 -52.04950153 50.22163207 -54.953125 41.81640625 C-57.21518534 30.60035708 -57.45460728 18.0642858 -51.265625 8.12890625 C-45.55420335 0.21017189 -38.80183583 -4.07629811 -29.515625 -6.93359375 C-18.48324584 -8.00992342 -9.19997971 -6.50849629 0 0 Z M-30.953125 12.81640625 C-32.4003386 15.33815544 -32.4003386 15.33815544 -31.953125 20.81640625 C-25.683125 20.81640625 -19.413125 20.81640625 -12.953125 20.81640625 C-11.56698634 16.98625418 -11.56698634 16.98625418 -13.078125 14.19140625 C-15.76129884 10.79271938 -18.17667365 10.04415642 -22.390625 9.50390625 C-25.72605751 9.91066631 -28.07533965 11.11589672 -30.953125 12.81640625 Z " fill="#FDFEFE" transform="translate(445.953125,856.18359375)"/>
<path d="M0 0 C2.375 2.25 2.375 2.25 3.5 5.5625 C3.34844535 10.03336222 2.53869505 13.01357633 -0.625 16.25 C-5.72155177 18.014191 -8.75142086 16.96367677 -13.43359375 14.95703125 C-17.7689337 13.55828521 -23.48524435 13.18012218 -27.625 15.25 C-28.27713292 17.27463255 -28.27713292 17.27463255 -28.625 19.25 C-27.60921875 19.46914063 -26.5934375 19.68828125 -25.546875 19.9140625 C-3.00739995 25.01044551 -3.00739995 25.01044551 3.375 34.25 C5.8416039 41.17998238 6.2745621 47.83404384 3.31640625 54.7109375 C-0.30609955 60.88869527 -4.9450639 63.87867561 -11.625 66.25 C-21.892071 68.82502102 -34.06672911 68.01419815 -43.6015625 63.265625 C-45.1875 62.25 -45.1875 62.25 -47.625 60.25 C-48.24375 59.8375 -48.8625 59.425 -49.5 59 C-51.47723532 55.92430061 -51.3069692 52.7053106 -50.625 49.25 C-49.2775028 46.35138381 -48.2019491 45.38831947 -45.625 43.25 C-41.35426282 43.08884011 -38.58810441 44.22006859 -35 46.3125 C-29.55143011 49.29521514 -23.65618882 48.58097987 -17.625 48.25 C-17.295 46.6 -16.965 44.95 -16.625 43.25 C-21.03330625 41.199625 -25.38426919 39.7131916 -30.0625 38.375 C-37.15237155 36.21544142 -42.33650533 33.9961936 -47.125 28.25 C-49.72446224 22.99330969 -49.22642739 16.9342223 -48.625 11.25 C-46.50592237 5.00429752 -42.40494111 1.0260332 -36.625 -2 C-25.61513947 -7.41614107 -10.57366729 -5.82681903 0 0 Z " fill="#FDFEFE" transform="translate(549.625,853.75)"/>
<path d="M0 0 C5.57608696 2.15217391 5.57608696 2.15217391 7 5 C7.09995793 6.38454177 7.1393645 7.77371132 7.14717102 9.16183472 C7.15432632 10.03387543 7.16148163 10.90591614 7.16885376 11.80438232 C7.17288712 13.24288544 7.17288712 13.24288544 7.17700195 14.71044922 C7.18357315 15.71868744 7.19014435 16.72692566 7.19691467 17.76571655 C7.21667368 21.11204089 7.22831497 24.45832034 7.23828125 27.8046875 C7.24235678 28.94524723 7.2464323 30.08580696 7.25063133 31.26092911 C7.27150138 37.29553294 7.28580009 43.33011396 7.29516602 49.36474609 C7.30624324 55.60844112 7.34065592 61.851781 7.38033772 68.09535027 C7.40643615 72.88738687 7.41485174 77.67933792 7.41844749 82.47143936 C7.42332958 84.77359546 7.4349893 87.07574734 7.45348549 89.37783432 C7.47773651 92.59576638 7.47693759 95.81276697 7.4699707 99.03076172 C7.48278076 99.98571533 7.49559082 100.94066895 7.50878906 101.92456055 C7.45767999 108.38461376 7.45767999 108.38461376 5.09562683 111.56057739 C1.6140607 113.95195974 -0.59247293 114.21363377 -4.8125 114.3125 C-5.85019531 114.34988281 -6.88789063 114.38726563 -7.95703125 114.42578125 C-11.95549146 113.86630479 -13.28444567 113.009736 -16 110 C-16.76560142 106.63636895 -16.69312631 103.31646633 -16.6628418 99.87890625 C-16.67320969 98.85086884 -16.68357758 97.82283142 -16.69425964 96.76364136 C-16.72138102 93.36285573 -16.71165703 89.96335497 -16.69921875 86.5625 C-16.70512505 84.20124958 -16.71237066 81.84000216 -16.72090149 79.47875977 C-16.73279115 74.52897546 -16.72605767 69.57964056 -16.70678711 64.62988281 C-16.68389505 58.28054141 -16.7106797 51.93253769 -16.75184917 45.58332825 C-16.77739892 40.70714182 -16.77485495 35.83127666 -16.76395607 30.95504761 C-16.76246695 28.61382838 -16.77018727 26.27258484 -16.78720665 23.931427 C-16.80712476 20.66048538 -16.78883878 17.39192473 -16.76049805 14.12109375 C-16.77421448 13.15058075 -16.78793091 12.18006775 -16.80206299 11.18014526 C-16.75805668 8.64444797 -16.66604097 6.44705131 -16 4 C-10.93267249 -0.56572831 -6.52037249 -0.8982685 0 0 Z " fill="#FEFEFE" transform="translate(263,808)"/>
<path d="M0 0 C11.34144155 9.8764001 16.26327269 30.65875149 17.5234375 45.109375 C17.82938107 49.73893622 17.97058355 54.36097347 18 59 C18.00785522 60.1607605 18.00785522 60.1607605 18.01586914 61.3449707 C18.08101577 81.47527905 13.6646123 103.0830899 2 120 C1.34 120 0.68 120 0 120 C-7.81027317 102.23482947 -12.29367951 84.39170797 -13 65 C-13.05285156 63.77023437 -13.10570312 62.54046875 -13.16015625 61.2734375 C-13.65184825 39.93828026 -8.77663971 19.38330216 0 0 Z " fill="#4C4391" transform="translate(469,487)"/>
<path d="M0 0 C11.60651983 13.50075897 13.55534716 38.98719558 14 56 C14.05994141 57.60875 14.05994141 57.60875 14.12109375 59.25 C14.53943952 79.33059674 10.09748104 99.65342153 2 118 C1.01 118.99 1.01 118.99 0 120 C-12 101.71914894 -12 101.71914894 -12 92 C-12.66 91.67 -13.32 91.34 -14 91 C-15.0708852 87.08829436 -15.45827388 83.01369803 -16 79 C-16.10376953 78.30487305 -16.20753906 77.60974609 -16.31445312 76.89355469 C-18.17526981 64.26340072 -17.75626124 52.62023904 -16 40 C-15.83886719 38.72382812 -15.67773438 37.44765625 -15.51171875 36.1328125 C-14.90247164 32.40291796 -13.54459878 29.44564344 -12 26 C-10.9402499 23.01912656 -9.97087639 20.01080767 -9 17 C-8.33333333 15 -7.66666667 13 -7 11 C-6.34 11 -5.68 11 -5 11 C-4.9175 10.29875 -4.835 9.5975 -4.75 8.875 C-3.82972275 5.34727053 -2.11873023 2.93888386 0 0 Z " fill="#67D0EF" transform="translate(730,487)"/>
<path d="M0 0 C2.55744938 2.23776821 3.81006541 4.29735914 4.25447559 7.69625759 C4.2575549 8.72076818 4.2575549 8.72076818 4.26069641 9.76597595 C4.26778122 10.55517929 4.27486603 11.34438263 4.28216553 12.15750122 C4.27968811 13.01423431 4.27721069 13.87096741 4.2746582 14.75366211 C4.2823246 16.11774452 4.2823246 16.11774452 4.29014587 17.50938416 C4.30404578 20.51543763 4.30308482 23.52126195 4.30078125 26.52734375 C4.30466789 28.61715276 4.3090025 30.70696099 4.31376648 32.79676819 C4.3212295 37.17728231 4.32093675 41.55771584 4.31567383 45.93823242 C4.30987843 51.55173559 4.32681163 57.16490889 4.3500185 62.77835751 C4.36475008 67.09434437 4.36562833 71.41025168 4.36250877 75.72625923 C4.36302225 77.79591081 4.36826495 79.86556681 4.37832069 81.93519402 C4.39065676 84.82932856 4.38391034 87.72281912 4.37231445 90.61694336 C4.38378006 91.89900665 4.38378006 91.89900665 4.39547729 93.20697021 C4.3540586 97.88377461 4.01807652 100.94046186 1 104.75 C-3.40991406 107.82668423 -8.85600157 107.39014203 -14 106.75 C-17.00197464 104.94881522 -18.45166366 103.84667268 -20 100.75 C-20.11440937 97.75596208 -20.16787812 94.7846677 -20.17700195 91.78979492 C-20.18357315 90.86119156 -20.19014435 89.9325882 -20.19691467 88.97584534 C-20.21667159 85.89405238 -20.22831529 82.81230819 -20.23828125 79.73046875 C-20.24235678 78.67941767 -20.2464323 77.62836658 -20.25063133 76.54546547 C-20.27150178 70.9830304 -20.28579957 65.42062007 -20.29516602 59.8581543 C-20.30623555 54.10778505 -20.34063916 48.35780224 -20.38033772 42.60756969 C-20.4064609 38.19036633 -20.41485401 33.77325565 -20.41844749 29.35598183 C-20.42332417 27.23607077 -20.43496875 25.11616415 -20.45348549 22.99632835 C-20.47778634 20.03003539 -20.4769284 17.06475032 -20.4699707 14.09838867 C-20.48278076 13.22183624 -20.49559082 12.34528381 -20.50878906 11.44216919 C-20.47408791 7.38555645 -20.31349881 5.26432567 -18.15812683 1.72822571 C-13.39244037 -2.64019385 -5.73476842 -2.38948684 0 0 Z " fill="#FBFDFE" transform="translate(485,812.25)"/>
<path d="M0 0 C3.55680172 2.10504591 4.69468936 3.08406808 6 7 C6.26724398 10.60779371 6.20974001 13.37077998 5.0625 16.8125 C1.93390912 20.13070245 -1.61723867 20.2975875 -6 21 C-11.52567372 22.03021035 -14.1433999 23.64093468 -17.73828125 27.7578125 C-22.52433134 36.26305321 -21.30114646 46.66935328 -21.21484375 56.0859375 C-21.34213651 65.30976696 -21.34213651 65.30976696 -24.69921875 68.83203125 C-30.60422355 70.92149449 -36.33558846 71.17234108 -42.125 68.625 C-44 67 -44 67 -45 65 C-45.11141988 63.14253988 -45.15924618 61.28112433 -45.17700195 59.42041016 C-45.19625481 57.66816635 -45.19625481 57.66816635 -45.21589661 55.88052368 C-45.22328354 54.61284149 -45.23067047 53.3451593 -45.23828125 52.0390625 C-45.246353 50.74181244 -45.25442474 49.44456238 -45.26274109 48.10800171 C-45.27776646 45.35911184 -45.28760557 42.6102478 -45.29516602 39.86132812 C-45.30623419 36.34154559 -45.34063901 32.82239464 -45.38033772 29.30283546 C-45.41277679 25.94410276 -45.4172801 22.5854398 -45.42578125 19.2265625 C-45.45204338 17.33111191 -45.45204338 17.33111191 -45.47883606 15.39736938 C-45.47591049 14.22290253 -45.47298492 13.04843567 -45.4699707 11.83837891 C-45.47583694 10.8051651 -45.48170319 9.77195129 -45.48774719 8.70742798 C-44.86995196 5.27811846 -43.70625634 4.12876475 -41 2 C-36.19135086 0.39711695 -31.82928589 0.22763485 -27.1875 2.1875 C-24.74057195 4.21495467 -23.44454705 6.18693469 -22 9 C-21.46890625 8.51789062 -20.9378125 8.03578125 -20.390625 7.5390625 C-19.68421875 6.90742187 -18.9778125 6.27578125 -18.25 5.625 C-17.55390625 4.99851562 -16.8578125 4.37203125 -16.140625 3.7265625 C-11.05792302 -0.3729891 -6.39981157 -0.85952162 0 0 Z " fill="#FEFEFE" transform="translate(842,849)"/>
<path d="M0 0 C2.5 1.5625 2.5 1.5625 3.5 2.5625 C3.62537117 4.44282943 3.68076472 6.3278615 3.70874023 8.2121582 C3.73767616 10.02457756 3.73767616 10.02457756 3.76719666 11.87361145 C3.82463356 17.40912798 3.87453064 22.94449248 3.9050293 28.48022461 C3.92284041 31.40515023 3.95764936 34.32911125 4.00756836 37.25366211 C4.06773204 40.78218565 4.09849918 44.30981508 4.10820198 47.83882713 C4.12093036 49.8376233 4.1629906 51.83616282 4.20542908 53.83454895 C4.1853607 62.64259912 4.1853607 62.64259912 2.22111511 65.27903748 C-2.55435238 68.6216301 -7.9716304 68.27773808 -13.5 67.5625 C-16.61937969 66.18997293 -17.9897715 65.582957 -19.5 62.5625 C-19.61141988 60.70503988 -19.65924618 58.84362433 -19.67700195 56.98291016 C-19.69625481 55.23066635 -19.69625481 55.23066635 -19.71589661 53.44302368 C-19.72328354 52.17534149 -19.73067047 50.9076593 -19.73828125 49.6015625 C-19.746353 48.30431244 -19.75442474 47.00706238 -19.76274109 45.67050171 C-19.77776646 42.92161184 -19.78760557 40.1727478 -19.79516602 37.42382812 C-19.80623419 33.90404559 -19.84063901 30.38489464 -19.88033772 26.86533546 C-19.91277679 23.50660276 -19.9172801 20.1479398 -19.92578125 16.7890625 C-19.95204338 14.89361191 -19.95204338 14.89361191 -19.97883606 12.95986938 C-19.97591049 11.78540253 -19.97298492 10.61093567 -19.9699707 9.40087891 C-19.97583694 8.3676651 -19.98170319 7.33445129 -19.98774719 6.26992798 C-19.36995196 2.84061846 -18.20625634 1.69126475 -15.5 -0.4375 C-10.15272015 -2.21992662 -5.21336004 -2.14120144 0 0 Z " fill="#FEFEFE" transform="translate(873.5,851.4375)"/>
<path d="M0 0 C0.66 0 1.32 0 2 0 C2.20753906 1.02996094 2.41507812 2.05992187 2.62890625 3.12109375 C4.31508445 11.06457387 6.38004298 18.61585164 9.5 26.125 C9.78431885 26.81005615 10.0686377 27.4951123 10.36157227 28.20092773 C11.79659139 31.53976887 13.35784657 34.64124442 15.26171875 37.73828125 C17 41 17 41 17.05078125 43.16015625 C13.56147767 52.15111309 7.86372914 60.38842852 2 68 C-2.05539606 66.64820131 -3.23534316 63.97615672 -5.375 60.5 C-5.77058105 59.86650635 -6.16616211 59.2330127 -6.57373047 58.58032227 C-7.36189055 57.31058055 -8.14534673 56.03790568 -8.92382812 54.76220703 C-9.84794501 53.2489866 -10.78948281 51.74642933 -11.734375 50.24609375 C-12.19328125 49.48425781 -12.6521875 48.72242188 -13.125 47.9375 C-13.51945312 47.28652344 -13.91390625 46.63554688 -14.3203125 45.96484375 C-15.62414347 42.19572318 -14.21251868 39.44217597 -12.546875 35.9765625 C-11.95390625 34.87054687 -11.3609375 33.76453125 -10.75 32.625 C-5.41581844 22.33303806 -1.80924039 11.47652488 0 0 Z " fill="#5850AF" transform="translate(485,566)"/>
<path d="M0 0 C7.18168818 6.52880744 14.00007203 15.70334823 17 25 C16.72398892 29.5925177 14.39164277 33.28173375 12.25 37.25 C7.18323104 46.96860171 3.988439 57.2205675 2 68 C1.34 67.67 0.68 67.34 0 67 C-0.756122 64.2123695 -1.42443615 61.4398093 -2.0625 58.625 C-4.46094326 48.69578701 -8.4432185 39.9323481 -13.13964844 30.89672852 C-14.04611921 28.89832572 -14.67492167 27.17321883 -15 25 C-13.93457914 22.48442297 -12.83434889 20.24008592 -11.5 17.875 C-11.13777344 17.2142749 -10.77554687 16.5535498 -10.40234375 15.87280273 C-7.30353763 10.31830074 -3.82655565 5.08214422 0 0 Z " fill="#5850AF" transform="translate(485,460)"/>
<path d="M0 0 C4.28584247 2.26897543 7.15800451 4.44918762 9 9 C8.89874262 13.86035412 7.41212829 16.58787171 4 20 C0.27875005 22.27409719 -2.88832174 22.21366538 -7.0703125 21.54296875 C-10.82938881 20.48525295 -13.07098261 18.22461384 -15.375 15.1875 C-16.36126817 11.7355614 -15.96672989 9.44397522 -15 6 C-10.87473046 1.1707174 -6.26285735 -0.61400562 0 0 Z " fill="#FCFEFE" transform="translate(869,816)"/>
</svg>
